name D:\school\WTK\thesis\model\3dpredictsim\Results\batch_windlass\Pog_s1_tmt_aCst_d00_k800_WL10_ig24_pas.mot
datacolumns 128
datarows 4
range 1.61618924 1.64851303
endheader
time	pelvis_tilt	pelvis_list	pelvis_rotation	pelvis_tx	pelvis_ty	pelvis_tz	hip_flexion_l	hip_adduction_l	hip_rotation_l	hip_flexion_r	hip_adduction_r	hip_rotation_r	knee_angle_l	knee_angle_r	ankle_angle_l	ankle_angle_r	subtalar_angle_l	subtalar_angle_r	tmt_angle_l	tmt_angle_r	mtp_angle_l	mtp_angle_r	lumbar_extension	lumbar_bending	lumbar_rotation	arm_flex_l	arm_add_l	arm_rot_l	arm_flex_r	arm_add_r	arm_rot_r	elbow_flex_l	elbow_flex_r	pro_sup_l	pro_sup_r	glut_med1_l/activation	glut_med2_l/activation	glut_med3_l/activation	glut_min1_l/activation	glut_min2_l/activation	glut_min3_l/activation	semimem_l/activation	semiten_l/activation	bifemlh_l/activation	bifemsh_l/activation	sar_l/activation	add_long_l/activation	add_brev_l/activation	add_mag1_l/activation	add_mag2_l/activation	add_mag3_l/activation	tfl_l/activation	pect_l/activation	grac_l/activation	glut_max1_l/activation	glut_max2_l/activation	glut_max3_l/activation	iliacus_l/activation	psoas_l/activation	quad_fem_l/activation	gem_l/activation	peri_l/activation	rect_fem_l/activation	vas_med_l/activation	vas_int_l/activation	vas_lat_l/activation	med_gas_l/activation	lat_gas_l/activation	soleus_l/activation	tib_post_l/activation	flex_dig_l/activation	flex_hal_l/activation	tib_ant_l/activation	per_brev_l/activation	per_long_l/activation	per_tert_l/activation	ext_dig_l/activation	ext_hal_l/activation	ercspn_l/activation	intobl_l/activation	extobl_l/activation	glut_med1_r/activation	glut_med2_r/activation	glut_med3_r/activation	glut_min1_r/activation	glut_min2_r/activation	glut_min3_r/activation	semimem_r/activation	semiten_r/activation	bifemlh_r/activation	bifemsh_r/activation	sar_r/activation	add_long_r/activation	add_brev_r/activation	add_mag1_r/activation	add_mag2_r/activation	add_mag3_r/activation	tfl_r/activation	pect_r/activation	grac_r/activation	glut_max1_r/activation	glut_max2_r/activation	glut_max3_r/activation	iliacus_r/activation	psoas_r/activation	quad_fem_r/activation	gem_r/activation	peri_r/activation	rect_fem_r/activation	vas_med_r/activation	vas_int_r/activation	vas_lat_r/activation	med_gas_r/activation	lat_gas_r/activation	soleus_r/activation	tib_post_r/activation	flex_dig_r/activation	flex_hal_r/activation	tib_ant_r/activation	per_brev_r/activation	per_long_r/activation	per_tert_r/activation	ext_dig_r/activation	ext_hal_r/activation	ercspn_r/activation	intobl_r/activation	extobl_r/activation	
          1.61618924	         -2.92294859	          1.46182643	         -6.60492269	          2.02023655	          0.85493673	          0.00330570	         32.54464451	          2.60887879	         -1.49694481	        -18.56565574	         -1.61564132	          9.57694445	        -20.59608331	         -9.43959189	         -2.33931827	         -2.07736653	         -6.38284911	         11.82997195	         -0.06174496	         -1.44555023	          0.86439053	         26.62832494	         -0.98104461	          0.33955763	          1.75045157	         -9.75720255	        -13.70250000	          8.06256504	          5.38563474	        -13.46653889	         15.94926238	         17.49138146	         35.93236229	         86.51662706	         86.51662706	          0.05000072	          0.05000076	          0.05897867	          0.05000034	          0.05000047	          0.05000159	          0.06814737	          0.06951248	          0.24730000	          0.05897908	          0.05000123	          0.10796881	          0.13491416	          0.14505793	          0.14746708	          0.12530651	          0.05020850	          0.05001364	          0.10447964	          0.05897911	          0.05897990	          0.11397784	          0.06723471	          0.07123387	          0.21452249	          0.05897706	          0.05000042	          0.05000024	          0.11427240	          0.12466241	          0.10133862	          0.06957001	          0.06956997	          0.06957000	          0.05000019	          0.05897914	          0.05897916	          0.40774753	          0.35971080	          0.18734452	          0.31865074	          0.63417433	          0.16149910	          0.05423523	          0.11538363	          0.11512676	          0.25552427	          0.09056437	          0.05000292	          0.32090750	          0.20248868	          0.09680293	          0.05001086	          0.05000070	          0.05000062	          0.07529657	          0.10224098	          0.13236337	          0.05000098	          0.05000117	          0.05000382	          0.05000554	          0.31335224	          0.05000389	          0.05000190	          0.05003078	          0.05001349	          0.05000676	          0.37702921	          0.55395477	          0.05000126	          0.05000896	          0.05000106	          0.26661882	          0.05023353	          0.05901947	          0.09480138	          0.30468366	          0.38971695	          0.26097368	          0.20507529	          0.22558903	          0.29436545	          0.05000001	          0.09501903	          0.18087034	          0.05000012	          0.05000002	          0.05000013	          0.05000002	          0.05000055	          0.05000005	
          1.62696384	         -2.91092048	          1.61278539	         -6.89896445	          2.03681617	          0.85382216	          0.00310659	         32.04591381	          3.10544992	         -1.24736593	        -18.23261763	         -1.97453295	          9.33833962	        -20.48597798	        -11.61795239	         -2.58404669	         -3.06976137	         -7.16777365	         12.99516438	         -0.08698735	         -1.87056164	          1.04056945	         27.57161584	         -0.76303199	          0.05993823	          1.82348645	        -10.83429622	        -13.69157590	          7.85926215	          5.13487482	        -13.49458944	         16.30331923	         17.42395045	         36.94512102	         86.51662706	         86.51662706	          0.05897866	          0.05897804	          0.05000022	          0.05897930	          0.05897906	          0.05001472	          0.05897894	          0.05893016	          0.22661654	          0.05000039	          0.05000147	          0.11418167	          0.23502191	          0.12297545	          0.12954302	          0.14167224	          0.05000031	          0.08201239	          0.08857427	          0.05000059	          0.05000103	          0.13628231	          0.06626202	          0.06039037	          0.38983053	          0.05000072	          0.05898369	          0.05006939	          0.19318082	          0.19587109	          0.16497621	          0.05897882	          0.05897880	          0.05897881	          0.05000002	          0.05000045	          0.05000080	          0.56369135	          0.30494916	          0.15882357	          0.60347537	          0.71712271	          0.35275269	          0.05000007	          0.09781786	          0.09760009	          0.21662414	          0.07677706	          0.05000008	          0.27205339	          0.17166229	          0.08206590	          0.05000212	          0.05000026	          0.05000018	          0.06383359	          0.08667629	          0.15716483	          0.18983943	          0.05017604	          0.05000281	          0.05000057	          0.26564925	          0.11419803	          0.05000231	          0.05000125	          0.05000079	          0.05000064	          0.31963104	          0.48712697	          0.05000017	          0.05000063	          0.05000048	          0.22602934	          0.10436864	          0.05003631	          0.09889968	          0.25829918	          0.33038717	          0.22124353	          0.17385505	          0.19124598	          0.24955192	          0.05000024	          0.08055366	          0.15333516	          0.05000050	          0.05000286	          0.05000050	          0.05000006	          0.05000013	          0.06588499	
          1.63773843	         -2.89370229	          1.77032132	         -7.16280127	          2.05365964	          0.85252463	          0.00289668	         31.43277136	          3.60415151	         -0.92081285	        -17.79244373	         -2.31696206	          9.08534417	        -20.96232943	        -13.99513543	         -2.63420697	         -4.12863066	         -7.98539174	         14.08133933	         -0.11704945	         -2.30753214	          1.20990670	         28.18969816	         -0.52530925	         -0.23213334	          1.88792550	        -11.90871056	        -13.68541859	          7.71353937	          4.80587461	        -13.53628960	         16.58831271	         17.34981386	         37.95338580	         86.51662706	         86.51662706	          0.05000012	          0.05000022	          0.14727268	          0.05000047	          0.05000033	          0.05000027	          0.05000020	          0.05000025	          0.19211690	          0.05000024	          0.05000292	          0.09679906	          0.19924303	          0.31234724	          0.25746903	          0.16755518	          0.05000156	          0.06953925	          0.08104451	          0.14505106	          0.14885122	          0.14045888	          0.05617462	          0.05119718	          0.34582393	          0.05898255	          0.05000443	          0.05897889	          0.33503079	          0.32285660	          0.27497033	          0.05000001	          0.05000002	          0.05000000	          0.07034531	          0.05043778	          0.05000034	          0.53819900	          0.25852433	          0.13464462	          0.51160374	          0.60794956	          0.29905042	          0.05000002	          0.08292626	          0.08274163	          0.18364576	          0.06508871	          0.05897870	          0.23063663	          0.14552883	          0.06957242	          0.07042161	          0.05000070	          0.05001157	          0.05411572	          0.07348104	          0.24252248	          0.35568457	          0.25211256	          0.07431383	          0.14411550	          0.22520762	          0.09681366	          0.05000253	          0.05884921	          0.05897918	          0.05900944	          0.27097103	          0.42249072	          0.05897906	          0.05897930	          0.05000135	          0.19161909	          0.11472669	          0.14535871	          0.08386039	          0.21897619	          0.28008965	          0.18756182	          0.14738772	          0.16213121	          0.21156071	          0.14496521	          0.06829059	          0.13449543	          0.05000037	          0.18446887	          0.05000701	          0.06915496	          0.06956995	          0.05897895	
          1.64851303	         -2.87375390	          1.92406851	         -7.39455649	          2.07063380	          0.85110277	          0.00269847	         30.55448982	          4.06037251	         -0.54833592	        -17.24134901	         -2.62730689	          8.82917286	        -21.45313074	        -16.56267257	         -2.53771911	         -5.20851579	         -8.83174603	         15.06194579	         -0.38266082	         -2.63241185	          1.21760673	         28.10059944	         -0.27832417	         -0.52212137	          1.94044755	        -12.94667309	        -13.68619291	          7.66015637	          4.41896955	        -13.58630190	         16.80637576	         17.23914569	         38.94855007	         86.51662706	         86.51662706	          0.31505566	          0.35560464	          0.46125625	          0.35463728	          0.16985107	          0.26895986	          0.08610560	          0.12062531	          0.16286946	          0.06957009	          0.05000070	          0.08206266	          0.16891081	          0.26479656	          0.21827452	          0.17559630	          0.05000027	          0.05897616	          0.10778775	          0.28032116	          0.22290225	          0.16391900	          0.05000032	          0.05000024	          0.29317653	          0.05000416	          0.19678495	          0.05000009	          0.29434902	          0.31633773	          0.26441738	          0.05897884	          0.05897887	          0.05897885	          0.15335920	          0.05000076	          0.05021063	          0.57324431	          0.21916709	          0.11414658	          0.43371826	          0.58885579	          0.31063495	          0.05415448	          0.08206319	          0.07014521	          0.25594912	          0.05517978	          0.05000008	          0.19569023	          0.12337395	          0.05898093	          0.09734103	          0.05000302	          0.05000157	          0.05000037	          0.06229502	          0.20560160	          0.30153614	          0.21373153	          0.06300088	          0.12217581	          0.28878769	          0.08207799	          0.05000317	          0.05000181	          0.05000189	          0.05002634	          0.22971900	          0.39197916	          0.05000032	          0.05000104	          0.05000018	          0.16244738	          0.09726095	          0.12322961	          0.07109368	          0.18563966	          0.23744933	          0.15900776	          0.12494976	          0.13744885	          0.17935328	          0.21586593	          0.13100511	          0.13716749	          0.27625932	          0.24899209	          0.11090468	          0.10389321	          0.05897876	          0.05000016	
